<svg xmlns="http://www.w3.org/2000/svg" width="780" height="530" viewBox="0 0 780 530"><defs>
    <linearGradient id="bg" x1="0" y1="1" x2="1" y2="0"><stop stop-color="#17102d"/><stop offset=".55" stop-color="#3b1677"/><stop offset="1" stop-color="#6a27d4"/></linearGradient>
    <linearGradient id="line"><stop stop-color="#b18aff"/><stop offset="1" stop-color="#5ef5dc"/></linearGradient>
    <radialGradient id="orb"><stop stop-color="#c3abff"/><stop offset=".3" stop-color="#9560ff"/><stop offset=".7" stop-color="#5424a8"/><stop offset="1" stop-color="#2d135c"/></radialGradient>
    <linearGradient id="panel" x2="1" y2="1"><stop stop-color="#23143f"/><stop offset="1" stop-color="#120e22"/></linearGradient>
    </defs><rect x="1" y="1" width="778" height="528" rx="25" fill="url(#panel)" stroke="#594175" stroke-width="2"/><rect x="30" y="30" width="720" height="212" rx="15" fill="#0f0c1c" stroke="#392653" stroke-width="2"/><rect x="75" y="48" width="176" height="176" rx="14" fill="#482c71"/><rect x="92" y="65" width="42" height="42" rx="12" fill="#b68bea"/><rect x="92" y="123" width="115" height="7" rx="3" fill="#c2acd9"/><rect x="92" y="141" width="85" height="6" rx="3" fill="#85729d"/><rect x="92" y="182" width="142" height="24" rx="6" fill="#171124"/><rect x="306" y="48" width="176" height="176" rx="14" fill="#2a244c"/><rect x="323" y="65" width="42" height="42" rx="12" fill="#a097eb"/><rect x="323" y="123" width="115" height="7" rx="3" fill="#c2acd9"/><rect x="323" y="141" width="85" height="6" rx="3" fill="#85729d"/><rect x="323" y="182" width="142" height="24" rx="6" fill="#171124"/><rect x="537" y="48" width="176" height="176" rx="14" fill="#224049"/><rect x="554" y="65" width="42" height="42" rx="12" fill="#72d5c6"/><rect x="554" y="123" width="115" height="7" rx="3" fill="#c2acd9"/><rect x="554" y="141" width="85" height="6" rx="3" fill="#85729d"/><rect x="554" y="182" width="142" height="24" rx="6" fill="#171124"/><text x="34" y="287" font-family="DejaVu Sans Mono" font-size="18" font-weight="600" fill="#6ae4d2">04 / FIGMA + UI / UX</text><text x="32" y="340" font-family="DejaVu Sans" font-size="35" font-weight="600" fill="#faf6ff">Interface Design</text><text x="34" y="385" font-family="DejaVu Sans" font-size="23" font-weight="400" fill="#c4b6d6">Figma design work exploring layouts,</text><text x="34" y="419" font-family="DejaVu Sans" font-size="23" font-weight="400" fill="#c4b6d6">visual hierarchy, and prototypes.</text><path d="M34 462H746" stroke="#47335f"/><text x="34" y="502" font-family="DejaVu Sans Mono" font-size="17" font-weight="600" fill="#6ae4d2">DESIGN &amp; GUIDED PRACTICE</text></svg>